<?xml version="1.0" encoding="UTF-8"?>
<svg id="a" data-name="Layer 1" xmlns="http://www.w3.org/2000/svg" width="1000" height="1000" viewBox="0 0 1000 1000">
  <defs>
    <style>
      .b {
        fill: #bbbdbd;
      }

      .b, .c {
        fill-rule: evenodd;
      }

      .d {
        fill: #ed332d;
      }

      .e {
        fill: #f6fbfb;
      }

      .c {
        fill: #ed352f;
      }
    </style>
  </defs>
  <rect class="e" x="122.3" y="388.14" width="223.73" height="223.73"/>
  <rect class="d" x="392.95" y="393.31" width="213.39" height="213.38"/>
  <rect class="d" x="660.15" y="394.32" width="211.37" height="211.36"/>
  <path class="b" d="M378.52,378.87v242.25h242.26v-242.25h-242.26ZM513.49,554.27h-29.77v-72.19h29.77v72.19ZM530.66,473.58h-93.24v-29.77h125.17l-31.92,29.77ZM644.7,378.87v242.25h242.26v-242.25h-242.26ZM693.82,553.3v-110.45h133.51v29.77h-103.57v50.91h34.94l27.76,29.77h-92.63ZM811.36,553.46h-11.71l-50.15-52.96h42.09l49.39,52.96h-29.63Z"/>
  <path class="c" d="M113.04,378.87v242.25h242.25v-242.25H113.04ZM190.93,554.04h-29.77v-98.12l29.77,31.92v66.19ZM264.52,554.04l-.13-.14-103.02-109.98h44.11l103.04,110.11h-44ZM308.52,541.47l-29.77-31.92v-65.63h29.77v97.55Z"/>
</svg>